<svg version="1.1" id="Layer_1" xmlns="http://www.w3.org/2000/svg" xmlns:xlink="http://www.w3.org/1999/xlink" x="0px" y="0px"
	 width="100%" viewBox="0 0 752 496" enable-background="new 0 0 752 496" xml:space="preserve">
<path fill="#000000" opacity="1.000000" stroke="none" 
	d="
M108.588165,257.587524 
	C108.703896,230.297150 108.794022,203.475174 108.846611,176.653137 
	C108.858185,170.750000 109.521889,169.657120 115.283737,169.856155 
	C129.740997,170.355560 144.236176,168.526215 158.667313,170.799088 
	C172.727158,173.013504 183.776428,184.311935 186.448074,198.444916 
	C189.077377,212.353790 187.425369,225.240479 179.574722,237.141205 
	C177.909790,239.665054 178.067429,241.792496 180.478683,243.658859 
	C190.583511,251.480270 190.869171,262.867310 190.898010,273.997925 
	C190.913696,280.053223 189.494781,286.107697 187.311142,291.972351 
	C181.008987,308.898163 170.340820,314.440796 153.717712,315.054565 
	C141.241455,315.515228 128.735535,315.191071 116.242844,315.180573 
	C110.138290,315.175446 108.849823,313.870697 108.762741,307.956665 
	C108.576492,295.307831 108.976799,282.649719 107.986351,270.012543 
	C107.674217,266.030121 107.839661,262.016846 108.588165,257.587524 
M162.897934,276.336731 
	C163.017700,273.515778 163.344818,270.685547 163.219254,267.875580 
	C162.803299,258.566895 159.541321,256.121246 152.575668,256.035767 
	C149.418777,255.997025 146.251862,256.120483 143.106979,255.909653 
	C138.371048,255.592163 136.337646,258.006866 136.311447,262.388153 
	C136.283676,267.033295 136.163116,271.715607 136.661713,276.319000 
	C138.077942,289.394440 138.194122,289.381866 151.398407,288.858337 
	C159.658157,288.530823 162.659256,285.496368 162.897934,276.336731 
M159.781357,216.356979 
	C159.793518,214.028107 159.841827,211.698746 159.811630,209.370422 
	C159.670883,198.519089 157.275391,196.108078 146.630569,196.079742 
	C144.801178,196.074875 142.971558,196.115051 141.142181,196.142807 
	C137.929901,196.191559 136.173553,197.722534 136.184952,201.037491 
	C136.212952,209.188156 136.235718,217.338867 136.278091,225.489471 
	C136.285187,226.856476 136.432541,228.316605 137.977310,228.777237 
	C143.751602,230.499054 149.465347,230.338043 154.994812,227.794800 
	C159.573761,225.688721 160.134247,221.683136 159.781357,216.356979 
z"/>
<path fill="#000000" opacity="1.000000" stroke="none" 
	d="
M614.038818,339.170349 
	C607.893555,339.933228 604.793396,337.451202 602.788086,332.020477 
	C598.876038,321.426117 594.302917,311.075745 589.995483,300.627625 
	C589.440918,299.282227 588.999695,297.848755 587.241089,296.742218 
	C587.241089,308.478821 587.254089,319.907288 587.231873,331.335663 
	C587.226440,334.132477 587.806091,337.602692 584.263489,338.501282 
	C579.949097,339.595673 575.321777,340.226074 571.231323,337.619568 
	C569.323059,336.403534 569.805908,334.025848 569.804565,332.056213 
	C569.787964,307.227417 569.834961,282.398499 569.750916,257.570007 
	C569.737976,253.732513 570.078430,250.868179 574.819519,250.041397 
	C581.994507,248.790131 585.473755,249.558640 587.558716,254.303558 
	C592.489075,265.524170 597.252197,276.818237 602.078247,288.084595 
	C602.856689,289.901764 603.352844,291.872437 604.957397,293.335968 
	C606.526611,292.450043 605.817932,290.968506 605.825073,289.829071 
	C605.895935,278.498383 605.826843,267.166840 605.901245,255.836182 
	C605.934448,250.771042 608.148315,249.011917 614.053772,249.008072 
	C620.262207,249.004028 623.260315,251.217636 623.268677,256.085785 
	C623.312744,281.745117 623.323364,307.404572 623.280334,333.063904 
	C623.270996,338.641541 622.537720,339.064484 614.038818,339.170349 
z"/>
<path fill="#000000" opacity="1.000000" stroke="none" 
	d="
M248.206116,147.114960 
	C248.903870,143.844696 251.239227,143.971527 253.387527,143.954498 
	C260.874023,143.895126 268.364532,143.759033 275.847137,143.930283 
	C285.983826,144.162308 294.173645,152.374832 295.394806,162.437637 
	C296.366852,170.447861 296.102783,178.026291 291.436462,184.932953 
	C290.166199,186.813065 291.265259,187.942978 292.530029,189.179337 
	C303.507477,199.910324 298.448669,227.124207 283.427765,231.222656 
	C282.001740,231.611740 280.542511,232.130081 279.094147,232.145004 
	C270.443512,232.234146 261.791077,232.144333 253.140182,232.218185 
	C249.355423,232.250488 247.732285,230.584198 247.788971,226.774704 
	C248.016632,211.478485 247.566925,196.187653 248.389709,180.879623 
	C248.985352,169.798050 248.308701,158.648071 248.206116,147.114960 
M277.635834,215.289307 
	C281.735199,212.806107 280.848206,208.698242 280.880798,204.974915 
	C280.942535,197.919647 279.013763,196.199905 271.433319,196.203369 
	C265.534851,196.206070 265.050476,196.842728 265.081238,204.557144 
	C265.083221,205.055771 265.093506,205.554352 265.100525,206.052963 
	C265.258911,217.324387 265.920837,217.859329 277.635834,215.289307 
M265.108582,163.969742 
	C265.121857,167.627625 265.132111,171.285522 265.149323,174.943390 
	C265.162292,177.702148 265.772278,179.985794 269.228699,179.912186 
	C272.675568,179.838776 276.783234,180.547913 277.785217,175.951294 
	C278.586304,172.276428 279.089813,168.466934 278.152832,164.581680 
	C277.511292,161.921341 276.243530,160.247192 273.579590,160.202469 
	C270.512238,160.151001 266.697845,158.416046 265.108582,163.969742 
M255.194107,206.503387 
	C255.194107,209.199478 255.194107,211.895554 255.194107,214.591644 
	C255.371185,214.586319 255.548264,214.581009 255.725342,214.575684 
	C255.725342,209.151917 255.725342,203.728149 255.725342,198.304382 
	C255.548309,198.303009 255.371292,198.301620 255.194260,198.300232 
	C255.194260,200.727753 255.194260,203.155273 255.194107,206.503387 
z"/>
<path fill="#000000" opacity="1.000000" stroke="none" 
	d="
M557.129089,265.255188 
	C557.592773,267.262512 558.164978,268.882965 558.172180,270.505951 
	C558.240723,285.967163 558.435364,301.432922 558.147339,316.889069 
	C557.894043,330.487732 547.307617,340.511230 534.152283,340.239319 
	C520.964172,339.966705 509.944061,329.096924 509.864471,316.076599 
	C509.770844,300.764984 510.066620,285.447510 509.736877,270.142426 
	C509.592285,263.431580 512.358459,258.668121 517.260071,254.714462 
	C525.650452,247.946716 537.182373,247.067932 546.742004,251.983856 
	C552.222900,254.802292 555.133789,259.329926 557.129089,265.255188 
M541.351135,306.730133 
	C541.214478,304.409302 540.984680,302.089539 540.957642,299.767426 
	C540.853088,290.791443 540.905090,281.812714 540.708252,272.839172 
	C540.617615,268.707275 537.590942,266.080597 533.536621,266.295654 
	C529.393799,266.515411 527.188416,268.580902 527.211426,272.950134 
	C527.286560,287.244904 527.205444,301.540649 527.314758,315.835052 
	C527.345032,319.792694 529.216675,322.796021 533.556946,322.643707 
	C537.534607,322.504120 540.576355,320.644226 540.844666,316.039062 
	C541.008789,313.223297 541.246826,310.411865 541.351135,306.730133 
z"/>
<path fill="#000000" opacity="1.000000" stroke="none" 
	d="
M353.259583,186.917038 
	C356.083801,200.124405 358.874908,212.909668 361.628021,225.703110 
	C362.832672,231.301010 362.167694,232.090378 356.378632,232.226334 
	C356.212067,232.230255 356.045380,232.227707 355.878784,232.230362 
	C345.384979,232.398026 345.245392,232.427368 343.140839,222.406006 
	C342.305023,218.426193 341.432129,215.716721 336.320343,215.866516 
	C326.519379,216.153793 326.331055,215.930206 324.684662,222.336960 
	C324.231293,224.101242 324.125854,225.953461 323.698883,227.726349 
	C323.014435,230.568451 321.405457,232.091843 318.236053,232.590515 
	C307.205475,234.326126 304.996735,232.320602 307.058350,221.430313 
	C309.218750,210.018219 311.523804,198.632812 313.851044,187.253204 
	C316.438660,174.600647 319.193909,161.982056 321.724823,149.318405 
	C322.577209,145.053497 324.881561,142.886063 329.201050,142.819702 
	C329.534088,142.814590 329.866821,142.790070 330.199646,142.773712 
	C343.771729,142.106934 344.173615,142.826172 346.424377,156.400482 
	C348.103882,166.529709 350.907867,176.472473 353.259583,186.917038 
M335.813446,186.959610 
	C335.579773,185.532730 335.703003,183.910400 333.617249,183.231430 
	C331.681793,186.257599 331.771057,189.902344 330.627167,193.137238 
	C330.056122,194.752213 329.283295,196.919205 331.315338,198.109833 
	C333.002686,199.098526 335.031921,198.526047 336.543976,197.526154 
	C338.458923,196.259842 337.596954,194.291245 337.119873,192.531891 
	C336.686584,190.934158 336.282104,189.328598 335.813446,186.959610 
M345.846802,192.977615 
	C346.186340,197.534439 348.367645,201.747818 348.205872,206.397003 
	C348.703308,199.277863 346.507812,192.673996 344.561981,185.501053 
	C343.791351,188.298721 344.868927,190.222427 345.846802,192.977615 
z"/>
<path fill="#000000" opacity="1.000000" stroke="none" 
	d="
M391.513062,322.020630 
	C377.589355,322.708771 380.275787,319.858612 376.970703,333.157684 
	C375.874023,337.570374 373.352020,339.286774 368.732452,339.225128 
	C358.510284,339.088684 358.035461,338.833160 360.029022,328.827148 
	C364.305420,307.363251 368.652374,285.912964 373.110565,264.486237 
	C373.917786,260.606689 373.441620,256.492737 375.456177,252.810593 
	C376.280457,251.303925 376.866974,249.621338 378.695404,249.338013 
	C383.815094,248.544724 388.975677,248.589752 394.091003,249.360413 
	C396.185089,249.675903 396.865784,251.496124 397.294128,253.380600 
	C399.572083,263.403137 401.939697,273.405762 404.155914,283.441803 
	C406.896515,295.852783 409.394623,308.318634 412.266174,320.698486 
	C413.160583,324.554352 413.726837,328.470734 414.892609,332.307404 
	C416.361450,337.141632 414.560272,339.022217 409.351654,339.077881 
	C397.087097,339.209076 399.479523,340.011292 395.895630,327.417053 
	C395.196686,324.960968 395.350220,322.332764 391.513062,322.020630 
M404.111572,320.352692 
	C402.763245,317.508575 403.421448,314.043091 401.362549,311.274689 
	C392.983459,313.115021 384.457275,311.610748 376.051086,312.729340 
	C372.682251,313.177612 371.560211,311.145691 372.268433,308.038055 
	C372.562897,306.746002 373.183472,305.525879 373.451294,304.230774 
	C373.716644,302.947418 373.724548,301.610870 373.845367,300.297638 
	C371.013031,309.805389 368.169220,319.239288 367.962830,329.187927 
	C368.581696,325.131317 369.296722,321.115753 370.525055,317.186157 
	C371.097687,315.354095 371.915985,314.159302 373.827026,314.041901 
	C381.625275,313.562683 389.424774,313.092133 397.228729,312.722504 
	C400.254303,312.579224 401.647736,314.354828 402.169830,317.236511 
	C402.744415,320.407806 403.624817,323.523712 404.371979,326.663727 
	C404.562195,326.621582 404.752380,326.579407 404.942596,326.537262 
	C404.759216,324.726227 404.575806,322.915192 404.111572,320.352692 
M384.202454,296.627960 
	C384.453979,299.232513 382.259216,301.552124 383.303253,304.594025 
	C386.002045,304.297302 390.347992,307.060181 390.284698,301.815979 
	C390.227661,297.087280 389.279510,292.112457 386.549866,287.744080 
	C386.392822,290.670227 384.718872,293.068207 384.202454,296.627960 
z"/>
<path fill="#000000" opacity="1.000000" stroke="none" 
	d="
M265.732666,274.251373 
	C267.860413,280.621735 272.439453,284.494873 277.235687,288.139465 
	C281.490021,291.372223 285.589569,294.780792 289.175903,298.735413 
	C299.318359,309.919434 297.585571,328.853271 285.681305,335.976440 
	C275.630341,341.990540 255.100586,341.265564 250.062042,327.875641 
	C248.173981,322.858124 247.444382,317.582947 247.664093,312.260071 
	C247.795959,309.065491 249.682266,307.017273 253.124191,306.946472 
	C255.286942,306.901978 257.456299,306.890076 259.615082,307.005585 
	C262.968781,307.185028 264.765778,308.997375 264.947174,312.390503 
	C265.053680,314.382324 265.031738,316.407654 265.404907,318.353210 
	C266.222076,322.613739 269.241730,324.249878 273.154144,323.390167 
	C276.994720,322.546234 278.986145,319.956573 278.378418,315.641571 
	C277.857330,311.941711 276.112427,309.183685 273.326904,306.810974 
	C267.244324,301.629822 261.315125,296.268616 255.233063,291.086823 
	C246.057388,283.269318 246.672592,273.280334 249.281113,263.123840 
	C251.120163,255.963303 261.428619,249.492645 270.011078,248.849945 
	C286.469666,247.617432 295.008667,258.601715 296.972321,272.731171 
	C297.427765,276.008148 297.097900,279.559052 293.633484,281.510437 
	C291.143982,282.912659 281.432281,282.181061 280.010162,280.670044 
	C279.234100,279.845459 279.318512,278.829529 279.465637,277.843170 
	C279.824524,275.436707 278.902313,273.301849 278.317932,271.041687 
	C277.153473,266.537720 273.957123,265.750275 270.242981,266.515686 
	C266.458649,267.295593 264.566406,269.814728 265.732666,274.251373 
z"/>
<path fill="#000000" opacity="1.000000" stroke="none" 
	d="
M394.634064,158.739700 
	C395.709808,156.074448 396.686920,153.781143 397.505585,151.432587 
	C400.144196,143.862823 400.121643,143.854965 408.067108,143.843323 
	C418.968170,143.827347 419.164124,144.180908 414.847900,154.217255 
	C409.925018,165.664185 405.164154,177.181122 400.191742,188.606232 
	C398.762665,191.889893 398.038757,195.172958 398.083466,198.749710 
	C398.197998,207.905945 397.984100,217.068741 398.238617,226.219559 
	C398.346283,230.090057 397.259521,232.140045 393.198090,232.604431 
	C390.889740,232.868362 388.634735,233.389191 386.276459,233.186859 
	C382.502502,232.863098 380.614410,231.182297 380.784454,227.095215 
	C381.005737,221.776520 380.308502,216.391342 380.842590,211.119476 
	C382.163788,198.078995 378.785004,186.273193 373.130341,174.687256 
	C369.058136,166.343735 366.030884,157.494247 362.412811,148.923111 
	C360.953308,145.465485 361.882629,143.843933 365.618805,143.811752 
	C365.785248,143.810318 365.951996,143.803406 366.118011,143.791443 
	C379.287262,142.843170 380.406036,143.704483 384.228302,156.255829 
	C385.549011,160.592697 386.510162,165.167694 389.741089,169.203110 
	C392.188538,165.948944 393.257568,162.483963 394.634064,158.739700 
z"/>
<path fill="#000000" opacity="1.000000" stroke="none" 
	d="
M339.142822,324.982361 
	C339.134033,327.643677 339.138611,329.808563 339.109650,331.972992 
	C339.022278,338.506622 338.380005,339.177460 332.024017,339.285187 
	C330.527313,339.310547 329.025757,339.141968 327.531403,339.197083 
	C323.265594,339.354248 321.651367,337.316986 321.686523,333.105499 
	C321.826904,316.290283 321.773560,299.473511 321.812653,282.657379 
	C321.821167,278.994720 321.782715,275.324158 322.005890,271.671906 
	C322.247131,267.722626 320.398621,266.209290 316.660980,266.357330 
	C314.666534,266.436371 312.664581,266.377563 310.667419,266.326508 
	C305.462158,266.193573 303.858795,264.584534 303.768616,259.462708 
	C303.613220,250.632782 306.020813,248.802414 314.732574,249.305298 
	C326.350433,249.975906 338.007629,250.020584 349.650055,250.189590 
	C356.354187,250.286911 357.129303,250.905121 357.226471,257.533508 
	C357.336273,265.027802 356.346405,266.206940 349.803864,266.305695 
	C337.374115,266.493378 339.214508,265.374908 339.152100,277.029785 
	C339.067383,292.847961 339.137238,308.667023 339.142822,324.982361 
z"/>
<path fill="#000000" opacity="1.000000" stroke="none" 
	d="
M421.390259,249.302185 
	C430.758087,250.344772 439.759521,249.576782 448.737854,249.842392 
	C454.384155,250.009445 460.024139,250.392975 465.666595,250.686447 
	C470.639130,250.945038 469.437195,255.163284 469.863647,257.870361 
	C470.810272,263.879364 468.615601,266.137512 462.604675,266.265778 
	C449.706238,266.540955 451.371674,264.619781 451.298676,277.869965 
	C451.197815,296.175751 451.135101,314.483887 451.338501,332.787842 
	C451.391754,337.582031 449.647919,339.579895 444.973389,339.267120 
	C443.314301,339.156097 441.644287,339.140686 439.981049,339.172760 
	C436.310120,339.243530 434.313538,337.471436 434.226501,333.818268 
	C434.127472,329.661804 433.828888,325.460297 434.276581,321.350220 
	C435.472931,310.367218 434.889069,299.421417 434.427521,288.441467 
	C434.205170,283.152313 434.650787,277.817749 435.062134,272.524567 
	C435.407593,268.079041 433.882568,265.844147 429.178345,266.320679 
	C427.695435,266.470886 426.182159,266.375519 424.685303,266.322388 
	C421.593842,266.212677 418.185425,266.895538 417.068054,262.551300 
	C415.763123,257.477966 417.408264,251.584351 421.390259,249.302185 
M442.762177,294.798981 
	C442.762177,292.982086 442.762177,291.165161 442.762177,289.348267 
	C442.648865,289.348816 442.535553,289.349396 442.422241,289.349945 
	C442.422241,302.112213 442.422241,314.874481 442.422241,327.636780 
	C442.539642,327.637024 442.657074,327.637268 442.774475,327.637512 
	C442.774475,316.997040 442.774475,306.356567 442.762177,294.798981 
M442.251617,277.214050 
	C442.251617,278.955719 442.251617,280.697388 442.251617,282.439056 
	C442.400391,282.430054 442.549164,282.421021 442.697937,282.412018 
	C442.697937,276.764801 442.697937,271.117584 442.697937,265.470367 
	C442.552551,265.470581 442.407166,265.470795 442.261780,265.471039 
	C442.261780,269.083679 442.261780,272.696320 442.251617,277.214050 
z"/>
<path fill="#000000" opacity="1.000000" stroke="none" 
	d="
M78.738586,159.001511 
	C78.723793,153.837433 78.706200,149.172943 78.699600,144.508438 
	C78.696716,142.472595 79.244278,140.803680 81.688660,140.782776 
	C98.301109,140.640671 114.912964,140.567627 132.187561,141.295975 
	C130.602417,143.958969 128.535843,143.797058 126.710701,143.877640 
	C114.241547,144.428223 101.795631,145.848816 89.290756,145.108780 
	C85.070435,144.859009 83.366028,146.068314 82.819855,150.817398 
	C80.843964,167.998108 83.726547,185.092133 83.026688,202.236649 
	C82.483719,215.537796 83.221527,228.859955 82.350807,242.189911 
	C81.810913,250.455276 82.812630,258.814575 82.980766,267.134552 
	C83.226669,279.302429 82.455132,291.429626 81.311256,303.539734 
	C80.315651,314.080048 83.867203,324.343079 83.300194,334.885071 
	C83.154007,337.603119 85.648201,337.060547 87.419945,337.145386 
	C112.560417,338.349091 137.695724,337.638794 162.839203,337.150909 
	C177.650909,336.863525 192.502396,336.343323 207.280212,337.805389 
	C212.228943,338.295044 215.208038,336.837097 216.122467,331.358673 
	C219.554550,334.162903 219.403839,337.284607 218.549652,340.260376 
	C217.747040,343.056458 215.016968,342.273285 212.979416,342.275482 
	C170.330460,342.321747 127.681091,342.239288 85.032883,342.426361 
	C79.977264,342.448517 78.541588,340.968506 78.557709,335.924713 
	C78.745621,277.117249 78.713882,218.309067 78.738586,159.001511 
z"/>
<path fill="#000000" opacity="1.000000" stroke="none" 
	d="
M480.827820,308.000000 
	C480.826752,290.671417 480.992828,273.840118 480.723236,257.015839 
	C480.642517,251.978882 482.642853,250.011093 487.319702,249.964798 
	C488.485168,249.953247 489.649506,249.829727 490.815002,249.817902 
	C496.503357,249.760117 498.041351,251.112518 498.106567,256.755981 
	C498.237427,268.084351 498.241241,279.414337 498.266754,290.743683 
	C498.297913,304.572205 498.076965,318.406311 498.423950,332.226501 
	C498.554657,337.434113 496.824799,339.702942 491.690460,339.461365 
	C490.872192,339.422913 490.042328,339.737396 489.216034,339.747864 
	C481.941956,339.840363 480.815430,338.749237 480.798676,331.492584 
	C480.781006,323.828461 480.816040,316.164215 480.827820,308.000000 
z"/>
</svg>