<svg version="1.1" id="Layer_1" xmlns="http://www.w3.org/2000/svg" xmlns:xlink="http://www.w3.org/1999/xlink" x="0px" y="0px"
	 width="100%" viewBox="0 0 1024 576" enable-background="new 0 0 1024 576" xml:space="preserve">
<path fill="#000000" opacity="1.000000" stroke="none" 
	d="
M475.602905,68.627586 
	C486.304352,67.526947 496.548340,69.060204 506.819092,68.719154 
	C516.626892,68.393478 526.661072,67.599686 536.225952,69.209328 
	C546.689880,70.970291 557.615906,70.897560 567.587891,75.560280 
	C576.905273,79.916901 583.960083,94.842018 581.994019,106.066269 
	C579.911316,117.955788 574.050354,127.950562 566.045471,136.419632 
	C561.351379,141.385925 554.841187,144.636688 549.143494,148.652863 
	C545.095337,151.506287 541.544434,155.170181 536.410522,156.245209 
	C535.148499,156.509491 534.543518,157.429291 534.810974,158.887573 
	C535.681946,163.637283 532.909973,163.409180 529.761719,162.430893 
	C527.236267,161.646133 524.754822,160.692291 521.700439,161.842026 
	C522.575806,164.602188 524.379150,165.707886 526.898682,165.704071 
	C537.473328,165.688065 547.290283,169.206802 556.609192,173.401825 
	C574.650757,181.523468 586.313416,197.025528 587.433655,219.508133 
	C587.860291,228.069733 584.992432,235.412598 580.325562,241.879883 
	C574.004639,250.639389 568.289429,259.848969 559.177795,266.562378 
	C553.072815,271.060547 548.110596,277.470673 546.041443,285.359558 
	C545.171875,288.674774 542.067810,290.137329 539.708435,292.475372 
	C540.587158,295.284912 543.341553,297.703522 541.939148,301.123627 
	C538.138489,299.259277 531.834717,298.670563 525.395996,299.594299 
	C526.741821,302.664917 525.701965,305.068298 522.872742,306.521759 
	C520.197693,307.896088 519.801147,304.963593 518.112305,303.461548 
	C518.715515,308.219788 515.110962,308.638306 512.394104,309.261169 
	C509.114624,310.013000 510.299194,306.149994 509.029602,304.951355 
	C507.118103,304.161438 505.496521,304.998138 503.936310,305.301910 
	C488.901489,308.229004 474.705750,303.900330 460.460297,300.302887 
	C454.212189,298.725067 448.145966,296.419006 442.001190,294.475037 
	C430.943329,290.976685 423.216217,283.356873 415.841614,275.179718 
	C410.931641,269.735443 407.018982,263.501678 403.191620,257.253479 
	C394.934021,243.772858 400.253815,227.889297 415.031281,221.314423 
	C417.559692,220.189438 419.553680,217.855316 422.087158,216.751175 
	C430.813995,212.947815 439.473785,208.517014 449.556396,211.662445 
	C451.867218,212.383347 453.610626,211.326019 453.566132,208.695786 
	C453.426056,200.415146 454.658966,192.142792 452.791443,183.840302 
	C451.616974,178.618774 448.626434,176.836456 443.931091,177.357803 
	C439.007385,177.904510 435.616333,175.778091 432.787842,172.146240 
	C429.459656,167.872757 430.852081,163.949173 436.129791,163.013565 
	C440.543945,162.231049 444.971710,161.309097 449.428314,161.051041 
	C452.953705,160.846924 454.006592,159.474014 453.930634,156.123520 
	C453.662933,144.315170 453.588776,132.509094 452.137177,120.754959 
	C451.026550,111.762001 456.815125,105.180542 465.806549,104.901779 
	C471.420837,104.727722 475.887939,109.439682 475.062744,115.087868 
	C472.986115,129.301712 473.759430,143.635315 472.740692,159.385330 
	C480.191620,155.583740 488.277466,161.241562 495.151184,155.126541 
	C497.500793,153.036240 501.030334,153.106430 504.207764,152.916031 
	C512.753784,152.403946 520.370972,149.581192 526.710693,143.673203 
	C526.954346,143.446167 527.164856,143.091965 527.449951,143.014420 
	C535.880188,140.721024 541.061707,133.875626 547.393677,128.685577 
	C554.253113,123.063202 558.865723,115.997871 559.835876,106.935730 
	C559.924011,106.111549 559.777649,105.259605 559.889893,104.441071 
	C560.972473,96.546303 559.519043,95.152954 551.643555,92.935814 
	C542.687561,90.414497 533.567139,91.128128 524.529236,90.346153 
	C518.895752,89.858719 513.229919,89.232277 507.596741,89.376511 
	C499.364563,89.587280 491.077118,89.963593 482.954681,91.199318 
	C478.603699,91.861252 474.384155,91.063622 470.071198,91.695549 
	C459.918854,93.183052 449.950287,95.756790 439.832886,97.092056 
	C433.269714,97.958229 426.489258,98.017136 420.202881,100.030327 
	C407.965240,103.949417 395.154449,106.210518 384.123413,113.744629 
	C378.696991,117.450821 376.997009,122.152367 376.263916,127.898407 
	C375.380066,134.826263 374.270599,135.333450 368.214264,131.959930 
	C360.836639,127.850456 353.871643,123.653282 352.523041,114.068008 
	C351.994934,110.314461 351.957367,107.032188 354.657776,104.333885 
	C358.220367,100.774071 361.071686,96.146332 366.847870,95.591423 
	C368.449310,95.437584 369.872803,94.443855 370.155487,92.913193 
	C370.761353,89.632248 373.210785,88.346199 375.728546,87.002594 
	C394.372528,77.053207 414.415131,71.166107 435.030151,67.263329 
	C440.592224,66.210320 446.522827,67.103767 453.009491,67.103767 
	C454.113037,68.057373 451.507507,69.486092 452.293182,71.541534 
	C459.952667,71.626137 467.387238,68.501328 475.602905,68.627586 
M551.650757,243.137573 
	C558.848389,235.938080 565.187378,227.926392 569.350403,218.729279 
	C573.103943,210.436783 573.888916,201.737671 566.175049,194.345566 
	C557.299072,185.839859 547.031799,181.670334 534.721008,183.230087 
	C533.248840,183.416611 532.710449,182.689484 531.786316,182.000854 
	C525.664917,177.439301 518.333191,177.318497 511.404999,178.004456 
	C508.460205,178.296021 506.369904,179.720520 504.473022,176.541519 
	C503.828552,175.461456 502.546661,175.199448 501.368500,175.233490 
	C494.223236,175.439896 486.645660,174.476791 482.254730,182.263962 
	C481.177643,184.174118 479.202789,184.844101 477.171936,185.011993 
	C473.667023,185.301758 472.712708,187.281677 472.105316,190.557190 
	C470.482269,199.310135 471.266113,208.094177 471.168945,216.856598 
	C471.115662,221.660385 470.246948,226.361023 470.550598,231.260956 
	C470.986206,238.289871 470.814667,245.393463 471.018280,252.468613 
	C471.245697,260.370422 471.070435,268.283783 471.070435,276.218964 
	C474.661133,276.426697 474.661133,276.426697 477.633362,281.454620 
	C490.065033,280.306915 501.017914,274.067413 512.805115,270.613434 
	C516.624451,269.494293 519.615417,265.810913 523.346741,264.079315 
	C534.031738,259.120728 543.467041,252.609009 551.650757,243.137573 
M451.705505,221.876862 
	C441.123077,221.090332 432.520386,225.463669 424.463043,231.821899 
	C420.603668,234.867447 418.752594,238.693375 418.065704,243.212402 
	C417.492218,246.985657 417.613190,250.861954 417.090485,254.646179 
	C416.604492,258.164398 417.736572,261.246674 420.242554,263.173645 
	C428.387482,269.436676 437.059998,274.852753 447.016785,277.207642 
	C448.579315,275.953613 448.570007,274.578491 448.631287,273.258423 
	C449.341736,257.951080 451.636871,242.803421 453.241638,227.586594 
	C453.441040,225.695511 453.382141,223.939499 451.705505,221.876862 
z"/>
<path fill="#000000" opacity="1.000000" stroke="none" 
	d="
M507.358948,476.506592 
	C505.447998,482.347321 504.725616,488.040222 505.432800,493.656860 
	C506.507660,502.193268 504.739899,511.002838 508.030273,519.315369 
	C510.585205,525.769897 516.405640,528.018005 522.514771,524.676697 
	C524.702759,523.479919 526.759583,522.041199 528.864136,520.694031 
	C535.390442,516.516479 536.106750,515.436890 534.517944,508.140076 
	C533.145325,501.836060 533.926941,496.761780 539.645752,492.846405 
	C543.886902,489.942749 544.984863,484.514771 548.353821,480.775940 
	C550.321167,478.592529 552.244324,477.352875 555.207581,477.660736 
	C559.178467,478.073334 563.167603,478.307953 567.148071,478.629883 
	C569.496826,478.819885 571.105591,480.251038 572.532654,481.935425 
	C573.700623,483.313965 574.115173,484.865723 573.276855,486.566895 
	C572.507324,488.128510 571.053894,488.397308 569.497253,488.513092 
	C559.584351,489.250305 550.223877,497.443359 548.443420,507.061127 
	C547.980530,509.561584 547.923279,512.176147 550.637024,513.663879 
	C553.182922,515.059692 555.271179,513.640503 556.926941,512.020447 
	C565.343872,503.785095 572.479004,494.726776 574.920288,482.782043 
	C575.923035,477.875916 579.822937,476.285095 584.117676,478.877380 
	C585.670349,479.814575 587.439270,480.430603 588.888367,481.494415 
	C591.655884,483.526123 593.557190,485.841827 590.762146,489.386719 
	C589.500000,490.987396 589.222900,493.126404 589.423157,495.130341 
	C590.245117,503.357483 590.811218,511.629486 593.518372,519.552063 
	C594.673584,522.932739 596.413513,524.666199 600.205627,523.029053 
	C601.972412,522.266296 603.971436,522.304321 605.030762,524.305115 
	C606.112732,526.348816 604.653931,527.639099 603.309631,529.004028 
	C595.855042,536.572815 583.349243,534.648804 580.897156,522.329712 
	C580.224365,518.949707 578.831238,515.668030 577.423584,512.494202 
	C576.351074,510.076233 574.465210,509.778534 572.886841,512.130737 
	C571.006104,514.933655 568.677429,517.261230 566.166382,519.473511 
	C559.352600,525.476624 553.143127,526.419189 545.382568,521.933044 
	C542.320496,520.162964 540.434570,520.790527 538.680908,523.365112 
	C534.194519,529.951599 526.695679,533.119690 521.278503,538.763367 
	C517.755981,542.433167 512.098083,542.334778 507.025604,541.876831 
	C504.450653,541.644348 502.074768,540.491699 500.720093,538.245056 
	C494.629852,528.144470 491.614746,517.659241 494.201599,505.515289 
	C496.231598,495.985413 495.085266,486.063385 494.368896,476.318481 
	C494.260162,474.839111 494.003326,473.370667 493.786835,471.676575 
	C489.955170,470.318207 486.336731,471.946533 482.750305,472.909760 
	C480.155701,473.606537 479.772003,475.928345 480.445587,478.215851 
	C482.749390,486.039825 479.882233,492.357849 475.477386,498.701538 
	C467.905029,509.606964 457.286743,517.138916 447.284882,525.374268 
	C444.737640,527.471619 442.405121,529.312073 443.090881,533.137024 
	C443.677673,536.410400 440.614929,537.679688 438.881836,539.487610 
	C434.237396,544.332764 429.122528,548.273193 421.844635,548.660767 
	C417.746368,548.879028 413.273956,549.821228 410.928192,553.798279 
	C406.906921,560.616150 401.871613,565.142334 393.382812,565.705566 
	C386.765656,566.144592 381.304047,571.279846 373.942810,570.568237 
	C367.131958,569.909851 362.378021,568.090881 359.817139,561.701538 
	C357.294128,555.406616 354.980408,549.062134 355.489105,541.940247 
	C356.479248,528.077820 361.664124,516.127747 371.874756,506.878021 
	C380.552917,499.016479 390.588379,493.156616 402.225739,490.310974 
	C406.815186,489.188690 411.519073,489.934479 416.053833,488.661835 
	C417.624176,488.221161 419.041656,489.176483 419.500031,490.848145 
	C419.970459,492.563629 418.987366,493.574829 417.542908,494.434631 
	C408.116364,500.045929 398.522400,505.409912 389.376038,511.449646 
	C376.866364,519.710205 369.482391,531.304443 368.713287,546.608521 
	C368.453339,551.780457 370.703705,553.226807 375.801941,552.192993 
	C389.536346,549.408142 401.052277,541.841919 413.289001,535.697754 
	C421.427032,531.611572 427.723236,525.424744 434.734192,520.025879 
	C435.124817,519.725037 435.532776,519.242554 435.955170,519.217041 
	C447.253906,518.534424 452.349945,508.960358 459.581604,502.565704 
	C464.458557,498.253143 468.253998,493.110657 469.455872,486.261993 
	C470.477295,480.441620 469.632324,476.734436 463.887604,474.750854 
	C457.541656,472.559784 451.216339,470.250244 444.490356,468.877625 
	C437.665771,467.484924 430.702942,466.915253 423.986206,465.270996 
	C410.150970,461.884186 396.131622,463.802979 382.215485,463.049286 
	C374.769989,462.646027 367.276428,463.686646 359.901978,461.390320 
	C349.159454,458.045258 346.191193,444.840271 354.164612,437.625336 
	C364.856018,427.950989 376.724945,420.150208 388.760162,412.406189 
	C394.372742,408.794739 400.548523,406.355865 406.142883,402.783569 
	C415.899689,396.553314 426.989288,394.063019 438.143951,392.006226 
	C443.717255,390.978546 449.239532,392.672485 454.088074,395.117126 
	C458.333496,397.257690 459.278809,402.467926 458.744781,406.524628 
	C458.062012,411.711304 455.641663,416.611328 450.235260,419.286560 
	C445.510590,421.624420 440.539978,423.568176 436.652069,427.459503 
	C434.752502,429.360779 432.110352,429.726410 429.993256,427.376923 
	C427.948212,425.107483 428.903412,422.983887 430.835785,421.285767 
	C434.573975,418.000763 433.671539,413.647888 433.423920,409.624084 
	C433.256836,406.909729 425.923798,404.598572 422.145477,406.161255 
	C416.468140,408.509369 410.630096,410.735474 405.446991,413.957184 
	C394.298065,420.887024 383.512115,428.402100 372.605927,435.719879 
	C370.704956,436.995422 367.997253,438.272491 368.557495,440.874573 
	C369.173340,443.735229 371.991058,444.488892 374.788544,444.942902 
	C385.272369,446.644501 395.897247,445.711823 406.420288,446.857086 
	C422.739899,448.633179 439.179260,449.443176 454.945465,454.727600 
	C460.222565,456.496338 465.155609,458.695007 469.518738,462.174164 
	C470.491180,462.949585 471.444794,464.546936 472.902466,463.802948 
	C478.450867,460.970947 484.607300,462.388550 490.402893,461.151825 
	C494.096375,460.363708 496.030273,458.481873 495.755798,455.212646 
	C494.793121,443.745911 497.795837,432.460480 496.973480,421.003906 
	C496.697144,417.154144 499.306213,415.302582 503.067474,415.378479 
	C508.526306,415.488647 513.340210,419.974579 513.088135,425.722168 
	C512.710083,434.341858 511.676056,442.942291 510.673767,451.522034 
	C509.864685,458.447662 510.890564,459.857788 518.036255,459.688141 
	C525.330139,459.515015 532.623108,459.188629 539.907166,458.768372 
	C542.582947,458.614014 545.375610,458.549957 545.943970,461.633179 
	C546.517212,464.742950 543.687500,465.563354 541.299194,466.528381 
	C533.264221,469.775055 524.672424,469.697784 516.296875,470.924011 
	C512.684143,471.452942 508.826111,471.712891 507.358948,476.506592 
z"/>
<path fill="#000000" opacity="1.000000" stroke="none" 
	d="
M700.809937,235.051300 
	C695.208191,224.121277 692.351807,212.654724 689.502197,201.202545 
	C688.574951,197.476059 694.582397,188.063248 698.251892,187.203339 
	C701.397217,186.466278 703.299500,188.414856 704.669983,190.844345 
	C706.012756,193.224731 706.188049,195.909424 706.148499,198.609604 
	C706.011230,207.974609 706.663330,217.202271 710.288818,226.028397 
	C711.516113,229.016373 713.220459,230.203079 716.430908,229.401794 
	C727.450745,226.651428 735.202454,219.683975 739.189148,209.478943 
	C741.358765,203.925262 739.140930,197.378235 739.624939,191.214172 
	C740.240784,183.369980 742.270325,176.204376 746.034424,169.434219 
	C747.488159,166.819656 748.959045,163.825775 752.606628,164.176331 
	C756.022583,164.504654 757.314575,167.240524 758.642212,170.116577 
	C760.707581,174.590607 761.093811,178.751831 759.372375,183.540588 
	C757.808228,187.891708 758.155762,192.604752 759.123901,197.260941 
	C760.237732,202.617706 759.573364,208.581940 756.730652,212.654266 
	C751.410095,220.275894 751.807129,228.681030 751.213135,236.938080 
	C750.606628,245.369644 751.004028,253.884094 752.354553,262.300232 
	C752.856323,265.426758 754.410583,267.070526 757.680786,266.978912 
	C760.842651,266.890350 764.020203,267.034424 767.110046,266.162598 
	C774.313477,264.129944 781.626892,265.041046 788.820312,265.827850 
	C796.744751,266.694672 801.856995,271.767487 805.037537,278.873505 
	C805.734741,280.431152 806.352173,282.250549 804.587891,283.385864 
	C802.445679,284.764282 801.490234,282.721222 800.893494,281.331696 
	C799.593140,278.303406 797.265320,277.510559 794.259827,276.938934 
	C786.911255,275.541260 779.723267,274.063049 772.061951,275.007782 
	C767.304138,275.594482 763.165527,277.648376 758.646545,278.667419 
	C756.860229,279.070221 756.136353,280.853241 756.072266,282.600922 
	C755.763916,291.015350 753.643127,299.217712 755.031372,307.893707 
	C756.082886,314.465027 754.556152,321.467102 753.839783,328.190247 
	C753.054749,335.557770 751.869141,342.989807 749.755859,350.197662 
	C748.823608,353.377380 747.158569,355.895386 744.801819,358.107391 
	C743.591675,359.243134 742.382507,360.432343 741.426086,361.777466 
	C735.685730,369.850891 728.952209,372.550262 719.268860,370.430389 
	C711.643982,368.761078 704.205566,366.776794 697.447205,362.448151 
	C694.042236,360.267273 691.679016,357.744415 689.795532,354.276123 
	C683.184753,342.103516 683.908447,330.133545 690.522034,318.330109 
	C691.625183,316.361267 693.495728,314.759735 695.209839,313.207367 
	C701.192566,307.788971 703.731873,299.813049 709.842285,294.348724 
	C716.836853,288.093781 724.508545,282.848419 732.180664,277.599091 
	C736.963867,274.326385 740.638733,271.848175 740.569092,264.587280 
	C740.479431,255.235001 738.063599,246.269440 738.723450,237.045761 
	C735.870300,236.769913 735.085388,238.526657 734.219482,239.764282 
	C731.053345,244.289719 726.484863,246.048477 721.409973,247.687500 
	C713.604858,250.208328 709.885742,247.625702 703.835754,240.075012 
	C702.700623,238.658295 701.929077,236.950165 700.809937,235.051300 
M738.724792,288.810455 
	C735.836182,292.178375 731.061401,291.707703 727.725586,294.315430 
	C718.808472,301.286194 710.426819,308.843964 705.105347,318.938416 
	C700.268188,328.114166 699.092224,337.933563 703.602783,347.742920 
	C705.543884,351.964264 709.396790,353.688354 713.003662,351.137604 
	C719.608948,346.466400 726.836670,342.574005 732.556213,336.715698 
	C733.570374,335.676971 734.235229,334.247498 734.888306,332.913727 
	C741.663757,319.076782 740.115051,304.089294 740.819519,289.417023 
	C740.847412,288.836578 740.457458,288.236053 740.262268,287.644897 
	C739.869812,287.864441 739.477417,288.084015 738.724792,288.810455 
z"/>
<path fill="#000000" opacity="1.000000" stroke="none" 
	d="
M664.362915,460.764404 
	C665.496582,464.491577 663.022400,465.371918 660.658264,466.340790 
	C653.768982,469.163910 646.448975,469.810394 639.155823,470.374939 
	C627.454956,471.280762 626.256287,471.774323 624.601807,483.114258 
	C622.861938,495.040222 624.268372,507.004120 626.556030,518.771667 
	C628.007812,526.239746 634.505615,527.372009 640.691711,524.826538 
	C648.074036,521.788818 653.570801,516.093384 658.430725,509.902618 
	C659.497864,508.543213 660.372986,506.507324 660.273865,504.846344 
	C659.760193,496.239136 662.895508,487.712952 660.767883,479.098358 
	C660.571106,478.301758 660.628357,477.188538 660.117737,476.766113 
	C657.554138,474.645233 656.183899,472.972473 659.697449,470.150635 
	C663.157410,467.371704 666.181946,464.527374 670.490601,468.319427 
	C674.065002,471.465240 676.169678,475.661102 678.201355,479.857391 
	C678.975952,481.457397 678.814819,483.272736 677.749390,484.629150 
	C675.054138,488.060394 675.031799,491.962128 675.193298,496.006348 
	C675.332581,499.494537 675.151245,502.953583 674.442139,506.429840 
	C673.251160,512.268127 674.701904,517.619812 678.177673,522.478088 
	C680.157410,525.245361 681.877075,528.162415 679.607605,531.644348 
	C677.379333,535.063232 674.115967,536.284851 670.180359,536.124695 
	C663.662048,535.859375 658.646240,532.325500 656.372253,526.007324 
	C652.209656,529.581848 647.141418,531.408203 643.592041,535.902039 
	C638.774719,542.001160 631.698059,542.730347 624.460632,541.565735 
	C621.900208,541.153748 620.133179,539.315552 618.689575,537.124573 
	C613.441284,529.158325 612.030701,520.154846 611.901489,510.942627 
	C611.844482,506.877319 613.506226,502.939697 613.916748,498.771332 
	C614.819824,489.601929 612.371521,480.661377 613.185852,471.257690 
	C608.422302,470.554993 604.154968,471.702393 600.111938,473.493988 
	C597.319031,474.731598 595.325500,474.091614 593.450623,472.023224 
	C591.703308,470.095490 590.327759,468.031158 591.437012,465.285950 
	C592.587708,462.438263 594.873291,462.382141 597.604797,462.381256 
	C601.396973,462.380005 605.179443,461.482788 608.983398,461.226532 
	C613.283386,460.936859 614.948975,458.231689 614.735596,454.563171 
	C614.095459,443.560669 616.445190,432.689880 615.900146,421.702911 
	C615.668457,417.032013 618.624207,414.675903 623.282898,415.568970 
	C629.204041,416.704071 633.379333,422.124420 632.073975,428.622162 
	C630.394226,436.982880 630.678772,445.519379 629.001709,453.847076 
	C628.235779,457.650391 630.216309,459.736969 634.888672,459.670929 
	C642.679138,459.560822 650.468750,459.176575 658.249634,458.743378 
	C660.513794,458.617310 662.576721,458.537476 664.362915,460.764404 
z"/>
<path fill="#000000" opacity="1.000000" stroke="none" 
	d="
M648.526978,229.862427 
	C644.938293,235.790085 640.129883,240.180908 635.046753,244.209656 
	C630.356628,247.926880 624.271606,247.476837 619.283203,246.397461 
	C604.664917,243.234360 596.818420,230.160583 599.763367,215.779236 
	C600.044373,214.406830 600.592407,213.110947 601.657410,212.350220 
	C607.197510,208.392960 611.084106,203.124557 614.196655,197.172913 
	C617.419983,191.009415 622.360962,188.447601 629.371033,189.722229 
	C632.293457,190.253601 635.360352,189.934265 638.339172,190.228561 
	C641.013855,190.492828 643.598694,191.227188 645.558899,193.274261 
	C647.202148,194.990265 648.867126,196.835098 647.902161,199.423859 
	C646.914734,202.072784 644.497070,202.220810 642.064148,202.253311 
	C633.947205,202.361679 622.220093,210.404282 619.567871,218.235489 
	C618.467896,221.483261 615.827454,224.180237 616.227478,228.026947 
	C616.504089,230.686615 617.125183,233.063950 619.551270,234.329163 
	C622.056458,235.635605 624.386414,234.690567 626.467834,232.995865 
	C634.349304,226.578690 640.307190,218.576935 644.830933,209.602585 
	C647.166870,204.968414 650.005615,200.589966 650.144165,194.791229 
	C650.273071,189.395752 656.856140,187.569336 661.210022,190.935638 
	C663.892700,193.009827 667.666809,193.368530 669.834595,196.397385 
	C671.036865,198.077209 672.483154,199.582748 670.826904,201.686234 
	C666.492981,207.190292 667.223083,213.094910 668.448730,219.532196 
	C669.713257,226.173569 669.849792,232.985275 672.136902,239.512711 
	C674.701172,246.831177 674.791260,247.161667 682.082886,245.364914 
	C684.043884,244.881714 685.806274,244.795761 686.934509,246.668381 
	C688.149536,248.685013 687.400940,250.377747 685.829163,252.015839 
	C680.649719,257.413818 674.621033,259.718109 667.333313,257.132080 
	C661.375732,255.018021 658.946167,250.251251 657.585815,244.346695 
	C656.591492,240.030792 655.620728,235.554062 653.196777,231.702591 
	C652.245178,230.190536 651.484619,227.588791 648.526978,229.862427 
z"/>
<path fill="#000000" opacity="1.000000" stroke="none" 
	d="
M791.869873,522.844055 
	C792.331970,523.781250 792.523743,524.542969 793.011047,524.891785 
	C794.986328,526.306091 797.997375,527.347168 795.872925,530.531921 
	C793.870850,533.533142 791.047180,536.075134 787.102722,534.718445 
	C782.416565,533.106506 779.036499,530.167175 777.166565,525.050232 
	C774.194763,516.918030 775.189697,509.124847 777.360168,501.194855 
	C779.009766,495.168152 778.727722,492.485840 775.609497,487.380066 
	C769.948303,492.597565 765.082214,498.280334 764.368896,505.984711 
	C763.723511,512.955566 760.936768,518.325989 755.912292,522.853943 
	C754.076843,524.507996 752.107849,525.674866 749.607483,524.583923 
	C747.058167,523.471558 746.203186,521.278992 745.767822,518.626404 
	C745.082581,514.450562 747.850586,510.959991 747.729736,506.934845 
	C747.591003,502.315063 747.712891,497.679596 747.382507,493.075287 
	C746.887207,486.172363 749.879028,480.141876 751.756775,473.823090 
	C752.290405,472.027588 752.893921,470.250031 755.057312,469.876221 
	C757.505981,469.453156 759.342224,470.669312 760.507263,472.611938 
	C762.346619,475.678650 763.026978,479.093292 762.642395,482.678070 
	C762.466675,484.315918 762.022766,485.958832 762.993652,487.880463 
	C767.073486,486.878235 768.283630,483.631134 769.475037,480.171600 
	C772.520142,471.329956 782.849243,468.245270 788.390503,474.552002 
	C790.936890,477.450287 792.288452,481.076294 793.212402,484.841827 
	C794.970154,492.005249 793.222351,499.046661 792.587402,506.129791 
	C792.099915,511.568390 790.914062,516.971619 791.869873,522.844055 
z"/>
<path fill="#000000" opacity="1.000000" stroke="none" 
	d="
M689.395996,493.841095 
	C691.540466,487.166931 694.187927,481.382202 700.211731,477.761902 
	C701.808777,476.802032 703.173279,475.654297 705.150879,475.829407 
	C708.161316,476.095917 710.259094,474.786621 711.619751,472.135529 
	C712.954102,469.535706 714.636963,469.397797 716.763184,471.340515 
	C717.853577,472.336853 719.107300,473.202759 720.403259,473.916931 
	C724.696716,476.282867 729.900757,477.288483 732.294983,482.384094 
	C736.077942,490.435547 739.829285,498.779846 737.930603,507.723419 
	C736.616089,513.915405 733.356384,519.929932 726.610474,522.482056 
	C721.959229,524.241638 717.295227,526.364502 712.448242,527.128662 
	C701.666870,528.828613 692.358337,519.337952 693.412903,508.362457 
	C693.569336,506.734741 694.324768,504.588562 692.469910,503.844482 
	C687.406372,501.813171 688.526001,498.028412 689.395996,493.841095 
M710.036804,516.371704 
	C720.683350,514.190186 725.209717,506.578796 727.358582,496.854126 
	C727.991089,493.991608 727.503784,491.679993 724.750061,490.485382 
	C722.766541,491.236572 723.635254,493.626434 721.391479,494.175201 
	C719.571167,493.488434 717.662109,492.322968 714.856506,493.134125 
	C708.068054,495.096832 704.986145,499.992249 702.906189,506.035583 
	C700.531799,512.934387 701.824463,515.036072 710.036804,516.371704 
z"/>
<path fill="#000000" opacity="1.000000" stroke="none" 
	d="
M669.778320,434.138153 
	C671.298584,435.504913 672.440613,436.891968 674.277832,436.817566 
	C679.801941,436.593903 681.966431,440.931305 683.374512,444.724915 
	C684.577515,447.966003 681.712158,451.225250 678.945251,452.946930 
	C675.219727,455.265045 670.910400,456.669159 667.006592,452.883026 
	C663.585876,449.565338 657.856201,448.302216 659.103516,441.149048 
	C660.211121,434.797150 662.670959,432.337463 669.778320,434.138153 
z"/>
<path fill="#000000" opacity="1.000000" stroke="none" 
	d="
M474.724457,65.968338 
	C473.999420,66.346237 473.538971,66.636032 473.077637,66.637451 
	C471.460632,66.642426 469.572754,66.815056 468.973877,64.862915 
	C468.524231,63.397247 469.839752,62.740658 471.021271,62.821068 
	C472.855743,62.945923 475.824005,61.886875 474.724457,65.968338 
z"/>
<path fill="#000000" opacity="1.000000" stroke="none" 
	d="
M461.080353,67.244003 
	C459.749268,67.385880 458.784271,67.576752 457.820862,67.568855 
	C457.432465,67.565674 457.047607,67.127319 456.328308,66.680077 
	C458.522278,63.963829 461.256470,64.351730 463.956512,64.325615 
	C464.521393,66.913132 462.795166,66.874382 461.080353,67.244003 
z"/>
</svg>